<svg
  xmlns="http://www.w3.org/2000/svg" xmlns:xlink="http://www.w3.org/1999/xlink" version="1.1"
  x="0px" y="0px" viewBox="0 0 100 125" enable-background="new 0 0 100 100" xml:space="preserve"
  
>
  <path fill="currentColor" d="M83.363,54.182c-0.773,6.152-3.205,11.777-6.852,16.422l11.77,11.77c6.551-7.74,10.781-17.488,11.666-28.191H83.363z"/>
  <path fill="currentColor" d="M54.18,83.186v16.764c10.707-0.885,20.451-5.115,28.191-11.666L70.574,76.482C65.92,80.066,60.311,82.459,54.18,83.186z"/><path d="M29.606,76.303l-11.98,11.98c7.739,6.551,17.487,10.781,28.194,11.666v-16.83C39.75,82.32,34.198,79.906,29.606,76.303z"/><path d="M17.058,54.182H0.052c0.882,10.703,5.111,20.451,11.662,28.191l12.01-12.014C20.185,65.764,17.813,60.227,17.058,54.182z"/><path d="M23.728,29.637L11.714,17.627c-6.551,7.74-10.78,17.487-11.662,28.195h17.006C17.813,39.772,20.185,34.237,23.728,29.637z"/><path d="M45.82,16.88V0.05C35.113,0.936,25.369,5.165,17.625,11.717l11.98,11.98C34.198,20.093,39.75,17.681,45.82,16.88z"/><path d="M85.727,36.192l-3.662-3.666l14.65-14.65c4.049-4.049,4.049-10.609,0-14.654c-4.045-4.045-10.605-4.045-14.65,0  L67.41,17.876l-3.662-3.666c-2.025-2.021-5.307-2.021-7.326,0l0,0c-2.025,2.024-2.025,5.302,0,7.327l3.66,3.666L41.767,43.52  c-2.021,2.021-3.723,5.98-3.8,8.841l-0.065,2.404l0.861,6.408l6.409,0.865l2.408-0.064c2.857-0.078,6.817-1.779,8.843-3.805  l18.314-18.316l3.662,3.662c2.025,2.025,5.303,2.025,7.328,0l0,0C87.75,41.495,87.75,38.213,85.727,36.192z M52.756,54.508  c-1.09,1.09-3.772,2.246-5.315,2.287l-0.18,0.004l-4.123-4.119l0.004-0.18c0.045-1.543,1.196-4.229,2.29-5.319l18.316-18.316  l7.324,7.327L52.756,54.508z"/>
</svg>