<svg width="22" height="22" viewBox="0 0 22 22" fill="none" xmlns="http://www.w3.org/2000/svg">
  <path d="M0 11C0 4.92487 4.92487 0 11 0V0C17.0751 0 22 4.92487 22 11V11C22 17.0751 17.0751 22 11 22V22C4.92487 22 0 17.0751 0 11V11Z" fill="currentColor"/>
  <path d="M10.8504 5.28003C9.45716 5.28003 8.17655 5.79647 7.19292 6.65045C7.14362 6.69031 7.10273 6.73985 7.07268 6.79611C7.04263 6.85236 7.02405 6.91419 7.01803 6.9779C7.01202 7.04162 7.01869 7.1059 7.03767 7.16694C7.05664 7.22797 7.08752 7.2845 7.12847 7.33315C7.16941 7.3818 7.21959 7.42158 7.27599 7.45012C7.3324 7.47865 7.39389 7.49536 7.45679 7.49924C7.5197 7.50313 7.58272 7.49411 7.64212 7.47272C7.70152 7.45133 7.75606 7.41801 7.80251 7.37476C8.623 6.66241 9.68488 6.23336 10.8504 6.23336C13.2893 6.23336 15.2861 8.11044 15.5208 10.5234H14.1358L16.0131 13.3834L17.8904 10.5234H16.4586C16.2186 7.59265 13.7968 5.28003 10.8504 5.28003ZM5.68776 8.6167L3.81042 11.4767H5.24226C5.48223 14.4074 7.90403 16.72 10.8504 16.72C12.2437 16.72 13.5243 16.2036 14.5079 15.3496C14.5572 15.3097 14.5981 15.2602 14.6282 15.204C14.6582 15.1477 14.6768 15.0859 14.6828 15.0222C14.6888 14.9584 14.6822 14.8942 14.6632 14.8331C14.6442 14.7721 14.6133 14.7156 14.5724 14.6669C14.5314 14.6183 14.4813 14.5785 14.4249 14.5499C14.3684 14.5214 14.307 14.5047 14.2441 14.5008C14.1812 14.4969 14.1181 14.506 14.0587 14.5273C13.9993 14.5487 13.9448 14.582 13.8983 14.6253C13.0778 15.3377 12.016 15.7667 10.8504 15.7667C8.41151 15.7667 6.41476 13.8896 6.18001 11.4767H7.56509L5.68776 8.6167Z" fill="white"/>
</svg>